<svg width="871" height="566" viewBox="0 0 871 566" fill="none" xmlns="http://www.w3.org/2000/svg">
<rect width="871" height="566" rx="283" fill="#FFFCF9"/>
<path d="M372 59.1557H385C405.137 36.0338 414.642 29.8948 429 31.1556C450.726 37.5157 456.772 44.5246 458 65.1556C454.814 77.7159 450.274 87.7763 434.5 107.656V138.156" stroke="#BEA360" stroke-width="16" stroke-linecap="round" stroke-linejoin="round"/>
<path d="M80 455C83.3186 438.979 87.75 423.01 96.0814 409.384C105.747 393.345 120.405 381.341 135.726 370.319L135.27 370.639C195.981 335.299 261.283 308.735 322.313 271.168L322.976 270.717C338.571 259.691 351.261 245.351 360.95 229.25L361.321 228.567C379.408 193.91 399.345 161.877 435.673 161.449L434.007 161.491C434.605 161.513 435.196 161.539 435.779 161.569C473.871 160.692 493.357 192.578 511.665 229.09L512.4 230.373C522.087 244.823 534.1 258.09 548.151 268.739L548.181 268.762C609.665 310.841 674.827 335.778 736.807 370.711L736.435 370.467C752.284 380.835 767.173 392.792 776.665 409.148C784.792 422.89 789.084 438.912 792 455C790.851 438.697 788.317 422.118 781.211 406.771C772.93 388.485 757.971 374.003 742.565 361.949L742.193 361.704C683.597 321.767 616.987 290.506 562.819 250.088L562.849 250.112C551.368 240.683 541.648 229.251 533.6 216.515L534.335 217.799C525.239 199.358 516.396 180.082 500.713 162.59C485.244 144.469 459.142 135.078 437.157 134.604C436.44 134.567 435.719 134.536 434.993 134.509L433.327 134.551C411.734 135.646 386.744 146.403 372.181 163.699C357.168 180.484 347.716 198.946 338.679 217.16L339.05 216.477C331.403 230.037 321.184 242.301 309.024 251.616L309.687 251.165C251.921 289.96 187.871 320.901 129.73 361.777L129.274 362.097C114.58 374.702 100.086 388.978 91.5676 406.946C84.2345 422.195 81.5584 438.724 80 455Z" fill="#BEA360"/>
<path d="M134.038 389.085C249.434 312.443 315.33 273.939 435.249 214.606C557.027 274.877 622.628 312.874 734.96 387.978C748.093 397.771 759.723 405.9 771.486 427.859L626.884 429.52C709.46 434.458 771.841 432.772 792 455C785.573 396.672 761.928 378.982 714.446 351.42C638.968 312.258 585.112 285.876 557.335 265.011C529.802 247.217 516.847 221.363 497.793 188.572C484.188 171.711 465.911 159.577 435.249 157C405.508 159.504 388.99 169.449 375.708 186.357C347.375 231.477 338.378 248.725 315.665 265.011C311.265 269.107 264.529 294.009 153.552 352.528C98.9214 385.772 83.941 406.766 80 453.892C96.8775 432.311 160.239 434.067 244.616 429.52L100.014 427.305L134.038 389.085Z" fill="black"/>
<path d="M435.249 214.606C399.262 232.23 363.64 250.184 328.438 269.22C261.337 305.296 196.944 346.037 133.351 388.051C133.296 388.088 133.155 388.211 133.111 388.26C121.732 400.966 110.354 413.674 98.9772 426.382C98.0845 427.381 98.6534 428.67 99.9928 428.693C148.191 429.565 196.39 430.426 244.589 431.274L244.521 427.769C189.184 433.938 128.729 419.824 78.3543 452.605L82.0819 454.066C81.608 408.324 117.016 375.649 154.738 354.477L154.616 354.546C209.03 325.508 263.437 298.725 317.335 266.804L317.093 267.002C345.526 247.027 359.534 215.078 377.818 187.682L377.667 187.896C390.985 169.615 413.048 160.932 435.459 159.491L435.04 159.491C435.654 159.543 436.263 159.598 436.867 159.658C459.796 161.502 481.814 171.823 495.855 190.137L495.639 189.824C511.977 217.546 527.114 248.895 556.005 267.069L555.863 266.971C605.698 301.29 660.589 325.368 713.391 353.453L713.296 353.4C753.67 373.677 788.64 408.254 789.92 455.229L793.55 453.594C743.06 420.929 682.46 434.063 626.989 427.766L626.904 431.278C675.104 430.615 723.303 429.939 771.502 429.251C772.674 429.241 773.264 428.236 772.713 427.201C764.367 410.71 750.671 397.25 735.699 386.987C735.689 386.979 735.657 386.957 735.647 386.95C672.721 345.063 608.755 304.74 542.12 269.115C506.887 250.153 471.234 232.235 435.249 214.606C471.086 232.534 506.592 250.733 541.667 269.95C608.003 306.058 671.619 346.762 734.273 389.005L734.221 388.968C749.18 399.397 762.092 412.259 770.258 428.516L771.47 426.466C723.268 426.886 675.066 427.319 626.864 427.763C624.758 427.787 624.677 431.149 626.779 431.275C681.832 437.431 744.669 426.28 790.45 456.406C791.954 458.062 794.327 456.995 794.08 454.771C791.672 432.127 785.73 408.565 770.536 390.539C755.502 372.514 735.116 360.996 715.595 349.44C715.576 349.429 715.519 349.397 715.5 349.388C662.828 321.229 607.57 296.743 558.807 263.052C558.779 263.031 558.695 262.972 558.665 262.953C531.197 245.698 516.369 215.31 499.948 187.321C499.909 187.254 499.781 187.068 499.732 187.008C485.062 167.721 461.099 156.503 437.356 154.682C436.729 154.62 436.096 154.562 435.459 154.509C435.374 154.502 435.124 154.502 435.04 154.509C412.089 155.861 387.708 165.446 373.749 184.818C373.716 184.859 373.626 184.987 373.598 185.032C355.309 212.585 341.2 244.198 314.238 263.02C314.187 263.057 314.042 263.175 313.996 263.218C262.258 293.677 206.506 321.573 152.487 350.51C152.463 350.523 152.389 350.564 152.365 350.579C114.771 371.449 76.9441 407.083 77.9181 453.718C77.7304 455.981 80.2478 456.969 81.6457 455.179C126.762 425.45 189.902 437.213 244.71 431.272C246.809 431.159 246.744 427.799 244.642 427.767C196.44 427.138 148.238 426.521 100.035 425.917L101.051 428.228C112.357 415.457 123.662 402.684 134.965 389.911L134.725 390.12C198.049 347.744 262.096 306.616 328.893 270.054C363.935 250.763 399.41 232.528 435.249 214.606ZM435.249 214.606" fill="black"/>
<path d="M371.46 302.88V305.54C368.287 306.38 364.74 307.92 360.82 310.16C356.993 312.4 352.887 315.993 348.5 320.94L322.74 350.2L334.08 335.36L367.26 390.66C368.473 392.62 369.687 394.253 370.9 395.56C372.113 396.867 373.747 398.08 375.8 399.2V402C371.88 401.813 367.68 401.72 363.2 401.72C358.813 401.627 354.613 401.58 350.6 401.58C348.453 401.58 345.793 401.627 342.62 401.72C339.447 401.72 335.433 401.813 330.58 402V399.2C334.967 399.013 337.487 398.5 338.14 397.66C338.887 396.82 338.56 395.233 337.16 392.9L316.86 358.6C315.927 356.92 315.087 355.66 314.34 354.82C313.593 353.98 312.847 353.373 312.1 353C311.447 352.627 310.56 352.393 309.44 352.3V349.36C313.547 349.173 317.42 347.82 321.06 345.3C324.7 342.687 329.087 338.487 334.22 332.7L338.98 327.38C342.9 322.993 344.953 319.213 345.14 316.04C345.42 312.773 344.44 310.253 342.2 308.48C340.053 306.613 337.207 305.633 333.66 305.54V302.88C336.273 302.973 338.7 303.067 340.94 303.16C343.273 303.16 345.7 303.207 348.22 303.3C350.833 303.3 353.867 303.3 357.32 303.3C360.307 303.3 362.92 303.253 365.16 303.16C367.493 303.067 369.593 302.973 371.46 302.88ZM320.22 302.88V305.68C317.42 305.773 315.273 306.147 313.78 306.8C312.38 307.36 311.447 308.48 310.98 310.16C310.513 311.747 310.28 314.267 310.28 317.72V387.16C310.28 390.52 310.513 393.04 310.98 394.72C311.54 396.4 312.52 397.52 313.92 398.08C315.32 398.64 317.42 399.013 320.22 399.2V402C317.513 401.813 314.013 401.72 309.72 401.72C305.52 401.627 301.227 401.58 296.84 401.58C291.8 401.58 287.04 401.627 282.56 401.72C278.173 401.72 274.627 401.813 271.92 402V399.2C274.813 399.013 276.96 398.64 278.36 398.08C279.76 397.52 280.693 396.4 281.16 394.72C281.627 393.04 281.86 390.52 281.86 387.16V317.72C281.86 314.267 281.627 311.747 281.16 310.16C280.693 308.48 279.713 307.36 278.22 306.8C276.82 306.147 274.72 305.773 271.92 305.68V302.88C274.627 302.973 278.173 303.067 282.56 303.16C287.04 303.253 291.8 303.3 296.84 303.3C301.227 303.3 305.52 303.253 309.72 303.16C314.013 303.067 317.513 302.973 320.22 302.88ZM508.854 302.88C511.56 302.973 515.107 303.067 519.494 303.16C523.974 303.253 528.454 303.3 532.934 303.3C537.6 303.3 542.08 303.253 546.374 303.16C550.667 303.067 553.7 303.02 555.474 303.02C568.26 303.02 577.78 305.073 584.034 309.18C590.287 313.287 593.414 318.56 593.414 325C593.414 328.267 592.247 331.673 589.914 335.22C587.58 338.673 584.034 341.753 579.274 344.46C574.514 347.073 568.447 348.847 561.074 349.78V350.06C570.687 350.527 578.387 352.02 584.174 354.54C589.96 357.06 594.16 360.14 596.774 363.78C599.387 367.327 600.694 371.013 600.694 374.84C600.694 381.093 599.014 386.227 595.654 390.24C592.294 394.253 587.44 397.24 581.094 399.2C574.84 401.067 567.374 402 558.694 402C556.454 402 553.14 401.953 548.754 401.86C544.46 401.673 539.28 401.58 533.214 401.58C528.547 401.58 523.974 401.627 519.494 401.72C515.107 401.72 511.56 401.813 508.854 402V399.2C511.747 399.013 513.894 398.64 515.294 398.08C516.694 397.52 517.627 396.4 518.094 394.72C518.56 393.04 518.794 390.52 518.794 387.16V317.72C518.794 314.267 518.56 311.747 518.094 310.16C517.627 308.48 516.647 307.36 515.154 306.8C513.754 306.147 511.654 305.773 508.854 305.68V302.88ZM554.774 305.68C551.6 305.68 549.547 306.473 548.614 308.06C547.68 309.647 547.214 312.867 547.214 317.72V387.16C547.214 390.427 547.447 392.9 547.914 394.58C548.38 396.26 549.267 397.38 550.574 397.94C551.88 398.5 553.794 398.78 556.314 398.78C561.54 398.78 565.32 396.68 567.654 392.48C570.08 388.187 571.294 382.12 571.294 374.28C571.294 367.093 569.567 361.54 566.114 357.62C562.754 353.7 557.107 351.74 549.174 351.74H538.954C538.954 351.74 538.954 351.367 538.954 350.62C538.954 349.78 538.954 349.36 538.954 349.36H550.994C554.634 349.36 557.434 348.333 559.394 346.28C561.354 344.133 562.707 341.333 563.454 337.88C564.2 334.333 564.574 330.553 564.574 326.54C564.574 319.633 563.827 314.453 562.334 311C560.84 307.453 558.32 305.68 554.774 305.68Z" fill="black"/>
<path d="M421.987 301.9C425.627 301.9 428.52 302.087 430.667 302.46C432.814 302.74 434.774 303.207 436.547 303.86C438.134 304.327 439.72 305.073 441.307 306.1C442.987 307.127 444.387 308.48 445.507 310.16C446.627 311.84 447.187 313.893 447.187 316.32C447.187 319.493 445.927 322.06 443.407 324.02C440.98 325.98 437.994 326.96 434.447 326.96C431.087 326.96 428.24 326.167 425.907 324.58C423.574 322.993 422.407 320.52 422.407 317.16C422.407 314.547 423.294 312.167 425.067 310.02C426.934 307.78 429.36 306.287 432.347 305.54C431.414 305.167 430.154 304.887 428.567 304.7C427.074 304.513 425.58 304.42 424.087 304.42C419.14 304.42 414.847 306.007 411.207 309.18C407.567 312.353 405.747 317.253 405.747 323.88C405.747 325.653 406.027 327.707 406.587 330.04C407.147 332.28 408.314 334.613 410.087 337.04C411.674 336.573 413.027 336.247 414.147 336.06C415.267 335.873 416.34 335.78 417.367 335.78C419.047 335.78 420.26 336.153 421.007 336.9C421.847 337.647 422.267 338.627 422.267 339.84C422.267 340.773 421.847 341.52 421.007 342.08C420.26 342.64 419.374 342.92 418.347 342.92C416.854 342.92 415.36 342.453 413.867 341.52C412.374 340.587 411.16 339.747 410.227 339C406.494 341.613 403.46 344.647 401.127 348.1C398.794 351.553 397.627 355.987 397.627 361.4C397.627 367.373 399.26 372.227 402.527 375.96C405.887 379.6 410.787 382.307 417.227 384.08C423.667 385.76 431.46 386.6 440.607 386.6C445.087 386.6 449.66 386.133 454.327 385.2C458.994 384.267 463.287 382.82 467.207 380.86C471.127 378.9 474.3 376.473 476.727 373.58C479.154 370.593 480.367 367.093 480.367 363.08C480.367 361.773 480.227 360.14 479.947 358.18C479.76 356.22 479.107 354.213 477.987 352.16C476.867 350.107 474.954 348.333 472.247 346.84L472.667 345.72C476.494 346.933 479.62 349.687 482.047 353.98C484.567 358.273 485.827 363.313 485.827 369.1C485.827 376.193 483.587 382.353 479.107 387.58C474.627 392.807 468.467 396.867 460.627 399.76C452.787 402.56 443.827 403.96 433.747 403.96C424.88 403.96 416.994 403.167 410.087 401.58C403.274 399.993 397.487 397.707 392.727 394.72C387.967 391.64 384.327 387.953 381.807 383.66C379.38 379.367 378.167 374.513 378.167 369.1C378.167 363.78 379.287 359.253 381.527 355.52C383.86 351.787 386.707 348.707 390.067 346.28C393.427 343.853 396.787 341.987 400.147 340.68C403.507 339.28 406.214 338.347 408.267 337.88C405.467 336.853 402.76 335.64 400.147 334.24C397.534 332.747 395.387 330.88 393.707 328.64C392.12 326.4 391.327 323.693 391.327 320.52C391.327 316.973 392.26 314.033 394.127 311.7C396.087 309.273 398.607 307.36 401.687 305.96C404.86 304.56 408.22 303.533 411.767 302.88C415.314 302.227 418.72 301.9 421.987 301.9ZM479.667 300.92C486.76 300.92 492.454 302.693 496.747 306.24C501.04 309.787 503.187 314.78 503.187 321.22C503.187 327.1 501.647 331.953 498.567 335.78C495.487 339.513 491.054 342.5 485.267 344.74C479.574 346.887 472.714 348.567 464.687 349.78C463.847 349.873 462.96 350.013 462.027 350.2C461.187 350.293 460.347 350.433 459.507 350.62C458.667 350.713 457.827 350.853 456.987 351.04C456.24 351.133 455.447 351.273 454.607 351.46C444.9 353.233 437.527 355.147 432.487 357.2C427.54 359.16 425.067 362.053 425.067 365.88C425.067 368.12 425.86 370.127 427.447 371.9C429.127 373.58 431.227 374.887 433.747 375.82C436.36 376.753 439.02 377.22 441.727 377.22C442.194 377.22 442.614 377.22 442.987 377.22C443.454 377.127 443.874 377.08 444.247 377.08C444.714 376.987 445.134 376.94 445.507 376.94C442.614 375.913 440.654 374.42 439.627 372.46C438.6 370.5 438.087 368.493 438.087 366.44C438.087 362.987 439.394 360.373 442.007 358.6C444.62 356.827 447.84 355.94 451.667 355.94C455.774 355.94 458.947 356.92 461.187 358.88C463.52 360.84 464.687 363.453 464.687 366.72C464.687 369.8 463.754 372.32 461.887 374.28C460.114 376.24 457.594 377.687 454.327 378.62C451.06 379.46 447.187 379.88 442.707 379.88C438.32 379.88 434.354 379.18 430.807 377.78C427.354 376.287 424.6 374.14 422.547 371.34C420.587 368.54 419.607 365.04 419.607 360.84C419.607 354.867 421.194 349.967 424.367 346.14C427.634 342.22 432.207 339.093 438.087 336.76C443.967 334.427 450.874 332.7 458.807 331.58C460.207 331.393 461.56 331.207 462.867 331.02C464.174 330.74 465.48 330.507 466.787 330.32C468.187 330.04 469.587 329.807 470.987 329.62C479.014 328.313 485.5 326.68 490.447 324.72C495.487 322.76 498.007 319.68 498.007 315.48C498.007 313.053 497.214 310.953 495.627 309.18C494.134 307.407 492.174 306.053 489.747 305.12C487.414 304.187 484.987 303.72 482.467 303.72C481.814 303.72 481.16 303.767 480.507 303.86C479.854 303.86 479.247 303.907 478.687 304C481.58 305.027 483.727 306.52 485.127 308.48C486.62 310.44 487.367 312.447 487.367 314.5C487.367 317.953 486.107 320.567 483.587 322.34C481.067 324.02 477.894 324.86 474.067 324.86C469.96 324.86 466.694 323.88 464.267 321.92C461.934 319.96 460.767 317.347 460.767 314.08C460.767 311.56 461.42 309.32 462.727 307.36C464.034 305.307 466.087 303.72 468.887 302.6C471.687 301.48 475.28 300.92 479.667 300.92Z" fill="#BEA360"/>
<path d="M241 444.698C247.293 443.791 253.803 443.007 260.29 442.333C318.326 436.756 376.588 436.181 434.735 436C492.891 436.171 551.133 436.945 609.186 442.471C615.665 443.122 622.173 443.867 628.5 444.698C622.327 443.082 615.932 441.585 609.539 440.218C552.168 428.235 493.286 424.164 434.738 424C376.197 424.175 317.321 428.042 259.929 440.081C253.528 441.471 247.129 443.008 241 444.698Z" fill="#BEA360"/>
</svg>
